<svg fill="#A7A7A7" width="30px" height="30px" viewBox="0 0 0.9 0.9" xmlns="http://www.w3.org/2000/svg"><path d="M0.45 0C0.201 0 0 0.201 0 0.45s0.201 0.45 0.45 0.45 0.45 -0.201 0.45 -0.45S0.699 0 0.45 0zm0.221 0.308 -0.074 0.348c-0.005 0.025 -0.02 0.031 -0.041 0.019l-0.112 -0.083 -0.054 0.052a0.028 0.028 0 0 1 -0.022 0.011h0l0.008 -0.115 0.208 -0.188c0.009 -0.008 -0.002 -0.013 -0.014 -0.005L0.312 0.511l-0.111 -0.035c-0.024 -0.008 -0.025 -0.024 0.005 -0.036l0.434 -0.167c0.02 -0.007 0.038 0.005 0.031 0.035z"/></svg>